<?xml version="1.0" standalone="no"?>
<!DOCTYPE svg PUBLIC "-//W3C//DTD SVG 20010904//EN"
 "http://www.w3.org/TR/2001/REC-SVG-20010904/DTD/svg10.dtd">
<svg version="1.0" xmlns="http://www.w3.org/2000/svg"
 width="639.000000pt" height="639.000000pt" viewBox="0 0 639.000000 639.000000"
 preserveAspectRatio="xMidYMid meet">
<metadata>
Created by potrace 1.11, written by Peter Selinger 2001-2013
</metadata>
<g transform="translate(0.000000,639.000000) scale(0.100000,-0.100000)"
fill="#000000" stroke="none">
<path d="M2455 6378 c-454 -62 -841 -367 -1141 -898 -33 -58 -73 -134 -89
-170 -17 -36 -47 -91 -67 -122 -21 -31 -38 -61 -38 -66 0 -5 33 -21 72 -37 40
-15 121 -52 180 -81 264 -132 510 -212 738 -242 72 -9 331 -9 395 0 379 57
720 290 953 653 61 94 143 254 177 341 l27 70 66 -8 c202 -26 709 -191 882
-286 272 -150 606 -430 796 -667 26 -33 51 -62 54 -65 18 -14 156 -219 210
-310 195 -329 340 -750 376 -1092 3 -34 10 -85 14 -113 8 -50 5 -499 -3 -545
-3 -14 -8 -52 -12 -85 -10 -90 -61 -329 -90 -425 -94 -310 -242 -613 -423
-865 -66 -93 -213 -274 -222 -274 -3 -1 -21 27 -40 61 -19 34 -49 87 -66 118
-17 30 -73 129 -124 220 -105 187 -111 196 -207 375 -136 252 -162 302 -251
480 -167 335 -252 537 -267 640 -6 36 -14 109 -21 170 -15 152 -23 209 -46
315 -78 367 -255 656 -528 861 -36 27 -70 53 -77 59 -7 5 -14 10 -17 10 -3 0
-24 13 -48 29 -55 37 -228 124 -293 146 -72 26 -194 23 -265 -5 -88 -35 -229
-108 -315 -164 -397 -259 -609 -626 -670 -1161 -2 -16 -6 -57 -10 -90 -18
-175 -20 -189 -50 -280 -35 -108 -116 -287 -246 -545 -167 -331 -229 -447
-449 -840 -216 -387 -224 -399 -238 -387 -60 50 -251 305 -344 460 -128 214
-271 551 -313 737 -2 8 -10 42 -18 75 -9 33 -18 76 -21 95 -3 19 -8 46 -11 60
-3 14 -8 45 -11 70 -3 25 -7 52 -9 60 -26 98 -26 619 -1 745 2 11 7 40 10 65
3 25 8 56 11 70 3 14 7 36 10 50 19 100 47 207 83 315 19 61 37 115 38 120 6
29 90 217 134 301 27 53 50 99 50 103 0 9 -148 57 -154 50 -10 -10 -106 -210
-134 -279 -63 -153 -124 -333 -138 -410 -3 -14 -11 -47 -18 -75 -13 -48 -23
-97 -33 -160 -2 -16 -8 -55 -13 -85 -5 -30 -12 -82 -15 -115 -3 -33 -8 -80
-10 -105 -6 -60 -6 -387 0 -425 2 -16 7 -59 10 -95 14 -168 56 -377 110 -561
223 -755 738 -1397 1430 -1783 360 -201 792 -335 1200 -372 154 -14 546 -8
642 10 10 2 38 7 63 10 44 6 127 20 185 31 94 18 318 83 435 127 731 270 1326
808 1673 1513 153 312 262 699 294 1048 15 155 6 636 -12 667 -1 3 -6 30 -9
60 -14 123 -77 384 -129 535 -54 157 -173 420 -240 530 -214 354 -438 615
-724 845 -202 163 -425 304 -585 369 -86 35 -433 149 -608 201 -41 12 -86 25
-100 30 -14 5 -61 19 -105 31 -43 11 -93 31 -110 44 -51 39 -216 130 -310 172
-127 57 -297 110 -405 127 -19 3 -46 8 -60 11 -42 10 -301 12 -365 3z"/>
</g>
</svg>
