<svg id="Layer_1" data-name="Layer 1" xmlns="http://www.w3.org/2000/svg" viewBox="0 0 800 800"><defs><style>.cls-1{fill:#ca9c2c;}.cls-2{fill:#c4bcae;}.cls-3{fill:#cccab2;}.cls-4,.cls-5{fill:#95db9c;}.cls-4{stroke:#95db9c;stroke-miterlimit:10;stroke-width:5px;}</style></defs><path class="cls-1" d="M515.35,434c-5.2-33.48-.43-117.73-102.44-159.29a41.42,41.42,0,0,0-24.54-.52C285,315.6,289.87,400.41,284.65,434c-5.42,34.84-96.78,192-96.78,192C261.42,726.68,400,721.26,400,721.26S538.58,726.68,612.13,626C612.13,626,520.77,468.87,515.35,434Z"/><path class="cls-2" d="M400,690.29s-112.29-96.77-91.39-127S360.48,530,360.48,530l2.33-50.32h74.38L439.52,530s31,3.1,51.87,33.29S400,690.29,400,690.29Z"/><path class="cls-3" d="M469.86,377V478.8S417,531.45,400,531.45s-69.86-52.65-69.86-52.65V377c55.63,5.95,69.86-66.7,69.86-66.7S414.23,382.94,469.86,377Z"/><path class="cls-4" d="M612.46,216.15a301.58,301.58,0,0,0-70.21-52.35c.11,1.29.17,2.6.17,3.91a44.84,44.84,0,0,1-.82,8.53c88.18,49.66,147.87,144.17,147.87,252.37,0,159.62-129.86,289.47-289.47,289.47S110.53,588.23,110.53,428.61a287.57,287.57,0,0,1,35.38-138.55L135,286.69a300.55,300.55,0,1,0,477.45-70.54Z"/><path class="cls-5" d="M446.83,146.65S393.56,326.57,208.34,226.9h0l-16.82-6.56,7.16-11.25c91.66-198.86,243.67-81.3,243.67-81.3l-1.14,12.39Z"/><path class="cls-5" d="M538.81,177.26s-112-50.07-123.87-17l27.41-32.43s104.46,29.07,105.23,37.33Z"/></svg>
